Coordinates
version=1
nRows=24
nColumns=24
inDegrees=yes

Units are S.I. units (second, meters, Newtons, ...)
Angles are in degrees.

endheader
time	pelvis_tilt	pelvis_list	pelvis_rotation	pelvis_tx	pelvis_ty	pelvis_tz	hip_flexion_r	hip_adduction_r	hip_rotation_r	knee_angle_r	ankle_angle_r	subtalar_angle_r	mtp_angle_r	hip_flexion_l	hip_adduction_l	hip_rotation_l	knee_angle_l	ankle_angle_l	subtalar_angle_l	mtp_angle_l	lumbar_extension	lumbar_bending	lumbar_rotation
      0.45800000	     -9.73650495	     -0.34923422	     -0.90285303	     -0.70820115	      1.03590649	      0.30068006	     35.34786934	      1.12173791	     -4.40450442	    -15.81201896	      9.90317473	      0.13901669	      8.71254747	     -4.00042797	     -0.64903152	     -2.68956843	    -10.67282589	     20.51416542	      8.65011964	      6.35843917	     -3.75925374	      0.72179303	     -2.95333989
      0.46216667	     -9.70786579	     -0.30109283	     -0.82118952	     -0.70219115	      1.03471793	      0.30097927	     35.34121242	      1.08499719	     -4.06125724	    -15.68867242	      9.76896795	     -0.10146256	      8.70185093	     -4.08818018	     -0.65721892	     -2.71347931	    -11.31592404	     20.69615664	      8.89689523	      6.41253264	     -3.75727541	      0.70929778	     -2.97462358
      0.46633333	     -9.66926817	     -0.25864056	     -0.73639614	     -0.69615548	      1.03356057	      0.30126736	     35.33757428	      1.04911937	     -3.74849286	    -15.69508514	      9.64057616	     -0.32371758	      8.69253190	     -4.14380693	     -0.67987700	     -2.77548910	    -12.05438750	     20.89648998	      9.23816130	      6.50862163	     -3.76529483	      0.70834617	     -2.98257077
      0.47050000	     -9.58745979	     -0.23481664	     -0.65562172	     -0.69008009	      1.03251254	      0.30155659	     35.29111019	      1.03212640	     -3.45808604	    -15.80682232	      9.49153796	     -0.56568973	      8.68441998	     -4.22134331	     -0.72882219	     -2.86696647	    -12.84700537	     21.07339149	      9.60255292	      6.64961031	     -3.82551569	      0.73564699	     -2.98562057
      0.47466667	     -9.53012715	     -0.21345024	     -0.57181511	     -0.68396698	      1.03144475	      0.30185212	     35.28376922	      1.01649410	     -3.19857808	    -16.03899567	      9.32694662	     -0.81768500	      8.67670867	     -4.23471951	     -0.78811464	     -2.96583229	    -13.72353180	     21.23006066	      9.97211025	      6.84172962	     -3.84314091	      0.77020579	     -2.98514374
      0.47883333	     -9.42228625	     -0.20896990	     -0.49189512	     -0.67782347	      1.03049693	      0.30215448	     35.22446288	      1.01977567	     -2.95758429	    -16.36424757	      9.14107250	     -1.09514714	      8.66955579	     -4.27743010	     -0.87223093	     -3.08689061	    -14.65453918	     21.36085764	     10.37860702	      7.08736739	     -3.92558847	      0.82889872	     -2.98138895
      0.48300000	     -9.30841765	     -0.21435786	     -0.40890500	     -0.67165110	      1.02959479	      0.30245163	     35.16468537	      1.03069799	     -2.74302964	    -16.78454131	      8.94015172	     -1.37927651	      8.66258384	     -4.29026130	     -0.97472703	     -3.21708615	    -15.66142187	     21.45711027	     10.79863777	      7.38733084	     -4.00554629	      0.90377340	     -2.97339849
      0.48716667	     -9.19912809	     -0.22201140	     -0.33040231	     -0.66544576	      1.02871014	      0.30277137	     35.11926989	      1.04776457	     -2.55057747	    -17.30020124	      8.72394791	     -1.67410397	      8.65508419	     -4.26661467	     -1.08785944	     -3.36369463	    -16.73403301	     21.51340868	     11.22845568	      7.74723541	     -4.07242131	      0.98327035	     -2.95964639
      0.49133333	     -9.05886518	     -0.24368013	     -0.25365664	     -0.65921538	      1.02790893	      0.30310162	     35.04362850	      1.07943168	     -2.38650330	    -17.88947734	      8.49757439	     -1.96850809	      8.64527764	     -4.24308563	     -1.22608497	     -3.53516843	    -17.87561480	     21.52952986	     11.68246930	      8.17194368	     -4.17742280	      1.08346643	     -2.93941801
      0.49550000	     -8.92996668	     -0.26096853	     -0.17714182	     -0.65297287	      1.02710810	      0.30345171	     34.99043455	      1.10771820	     -2.24609598	    -18.55784761	      8.27003753	     -2.26270958	      8.63186838	     -4.17172919	     -1.36746298	     -3.70018519	    -19.08737589	     21.49355150	     12.12197047	      8.64874178	     -4.26002933	      1.17528462	     -2.91848032
      0.49966667	     -8.75735519	     -0.27961579	     -0.10465095	     -0.64671038	      1.02642630	      0.30380298	     34.89940119	      1.13570338	     -2.14681820	    -19.29902472	      8.06779381	     -2.50117554	      8.52113138	     -4.12982761	     -1.50989671	     -3.82941515	    -20.31687299	     21.28813382	     12.44739494	     13.13946924	     -4.40248387	      1.26856576	     -2.84493031
      0.50383333	     -8.58228648	     -0.32152032	     -0.02633544	     -0.64044566	      1.02578389	      0.30418023	     34.79267431	      1.19001809	     -2.04062318	    -20.05385383	      7.81786887	     -2.81317705	      8.50804982	     -4.03555011	     -1.69614164	     -4.00420324	    -21.66316670	     21.15012811	     12.87448141	     13.23245450	     -4.53755926	      1.40440188	     -2.86571951
      0.50800000	     -8.40888436	     -0.36516481	      0.04377298	     -0.63416452	      1.02515983	      0.30458859	     34.69591546	      1.24951009	     -1.96221428	    -20.86283235	      7.60109098	     -3.09076587	      8.48805834	     -3.90583273	     -1.89518561	     -4.19965598	    -23.07457878	     20.94695751	     13.32247967	     13.40499852	     -4.66667151	      1.53532433	     -2.82570084
      0.51216667	     -8.22576109	     -0.41526529	      0.11322065	     -0.62788244	      1.02459118	      0.30502005	     34.58464635	      1.31780287	     -1.89518395	    -21.69235175	      7.39616500	     -3.36473733	      8.45896263	     -3.75002868	     -2.11184483	     -4.39949966	    -24.54688376	     20.67461064	     13.75861924	     13.65089311	     -4.80725452	      1.67167547	     -2.78903181
      0.51633333	     -8.02350646	     -0.46519728	      0.17583105	     -0.62160619	      1.02408903	      0.30548188	     34.45321904	      1.39219297	     -1.83052061	    -22.54674958	      7.23011468	     -3.65126584	      8.05793384	     -3.58841114	     -2.33367849	     -4.58281680	    -26.05032440	     20.23372939	     14.09342219	     17.23083931	     -4.97077370	      1.80914842	     -2.72540761
      0.52050000	     -7.82526369	     -0.53235343	      0.24945398	     -0.61532393	      1.02361983	      0.30592582	     34.31760563	      1.47137191	     -1.82355326	    -23.40388746	      7.08251326	     -3.84699399	      8.04266634	     -3.37765108	     -2.58560086	     -4.76542155	    -27.64049182	     19.82086268	     14.47368963	     17.31520901	     -5.12513108	      1.97392832	     -2.69879967
      0.52466667	     -7.62832812	     -0.59537130	      0.31032875	     -0.60907115	      1.02316435	      0.30642110	     34.18164010	      1.55953897	     -1.79305691	    -24.26863716	      6.96994720	     -4.07548683	      8.01434147	     -3.13240499	     -2.84219152	     -4.95516352	    -29.28203089	     19.32926004	     14.82629925	     17.47733557	     -5.27831199	      2.13021070	     -2.64982013
      0.52883333	     -7.43261909	     -0.66687237	      0.37439396	     -0.60282012	      1.02275444	      0.30692371	     34.03277611	      1.65501184	     -1.77930779	    -25.11666996	      6.89572754	     -4.28342511	      7.97408126	     -2.85217697	     -3.11572716	     -5.12902840	    -30.97110585	     18.75666898	     15.13593131	     17.70273458	     -5.42724729	      2.29302116	     -2.59980967
      0.53300000	     -7.23305610	     -0.75211224	      0.43728037	     -0.59659099	      1.02238891	      0.30744017	     33.86473541	      1.76722709	     -1.77482997	    -25.94157206	      6.86174377	     -4.47720941	      7.91823335	     -2.54446804	     -3.41076888	     -5.29139748	    -32.70699917	     18.12596377	     15.40517019	     18.00263183	     -5.58215605	      2.47590696	     -2.54359112
      0.53716667	     -7.05474825	     -0.81339473	      0.50626394	     -0.59039072	      1.02204633	      0.30794534	     33.71136493	      1.85283439	     -1.77176298	    -26.76007877	      6.90029426	     -4.64959506	      7.10253756	     -2.19027867	     -3.67009291	     -5.37751062	    -34.44136586	     17.30162412	     15.47834361	     22.16169939	     -5.71809602	      2.63187535	     -2.48586466
      0.54133333	     -6.86145675	     -0.89730038	      0.56535579	     -0.58421060	      1.02174794	      0.30847050	     33.52553254	      1.96419869	     -1.79203788	    -27.54808879	      6.99223944	     -4.76036265	      7.09231169	     -1.81889370	     -3.96618157	     -5.49537158	    -36.23826796	     16.52793853	     15.60737861	     22.20135002	     -5.86654730	      2.81435295	     -2.43182156
      0.54550000	     -6.67968363	     -0.99189807	      0.62853898	     -0.57805609	      1.02149205	      0.30898438	     33.32746883	      2.08537860	     -1.81685114	    -28.28840746	      7.11084592	     -4.88890990	      7.06884246	     -1.40841397	     -4.27329896	     -5.58239424	    -38.05955095	     15.70703886	     15.67370454	     22.27538511	     -6.00282028	      3.00857376	     -2.37042298
      0.54966667	     -6.48844132	     -1.06212697	      0.68835442	     -0.57195433	      1.02129717	      0.30949176	     33.11042694	      2.18275886	     -1.84721067	    -29.01434654	      7.30696139	     -5.00535062	      7.05970258	     -0.99075762	     -4.54216231	     -5.62229827	    -39.87854021	     14.82295729	     15.61459905	     22.30276772	     -6.15744647	      3.17319126	     -2.30752686
      0.55383333	     -6.34756743	     -1.17357026	      0.75524116	     -0.56585825	      1.02107422	      0.31000386	     32.90772658	      2.32168120	     -1.87597918	    -29.66161372	      7.52739684	     -5.07421012	      7.03512890	     -0.48574374	     -4.86496706	     -5.65561724	    -41.73604124	     13.93531789	     15.56720481	     22.36210052	     -6.24882133	      3.38136269	     -2.23487273
